# AST/ASF file generated using VICON BodyLanguage
# -----------------------------------------------
:version 1.10
:name VICON
:units
  mass 1.0
  length 0.45
  angle deg
:documentation
   .ast/.asf automatically generated from VICON data using
   VICON BodyBuilder and BodyLanguage model FoxedUp or BRILLIANT.MOD
:root
   order TX TY TZ RX RY RZ
   axis XYZ
   position 0 0 0  
   orientation 0 0 0 
:bonedata
  begin
     id 1 
     name lhipjoint
     direction 0.57768 -0.667037 0.470475 
     length 2.36008 
     axis 0 0 0  XYZ
  end
  begin
     id 2 
     name lfemur
     direction 0.34202 -0.939693 0  
     length 6.97235  
     axis 0 0 20  XYZ
    dof rx ry rz
    limits (-160.0 20.0)
           (-70.0 70.0)
           (-60.0 70.0)
  end
  begin
     id 3 
     name ltibia
     direction 0.34202 -0.939693 0   
     length 6.93428   
     axis 0 0 20   XYZ
    dof rx
    limits (-10.0 170.0)
  end
  begin
     id 4 
     name lfoot
     direction 0.133018 -0.365463 0.921272   
     length 2.18603   
     axis -90 7.62852e-016 20   XYZ
    dof rx rz
    limits (-45.0 90.0)
           (-70.0 20.0)
  end
  begin
     id 5 
     name ltoes
     direction 1.53519e-011 -4.22055e-011 1   
     length 1.07924   
     axis -90 7.62852e-016 20   XYZ
    dof rx
    limits (-90.0 20.0)
  end
  begin
     id 6 
     name rhipjoint
     direction -0.577712 -0.667019 0.470462   
     length 2.36015  
     axis 0 0 0  XYZ 
  end
  begin
     id 7 
     name rfemur
     direction -0.34202 -0.939693 0   
     length 6.71195   
     axis 0 0 -20   XYZ
    dof rx ry rz
    limits (-160.0 20.0)
           (-70.0 70.0)
           (-70.0 60.0)
  end
  begin
     id 8 
     name rtibia
     direction -0.34202 -0.939693 0   
     length 7.04592   
     axis 0 0 -20   XYZ
    dof rx
    limits (-10.0 170.0)
 end
 begin
     id 9 
     name rfoot
     direction -0.113796 -0.312651 0.943027   
     length 2.03846  
     axis -90 -7.62852e-016 -20   XYZ
    dof rx rz
    limits (-45.0 90.0)
           (-20.0 70.0)
  end
  begin
     id 10 
     name rtoes
     direction -1.53586e-011 -4.218e-011 1   
     length 1.01562   
     axis -90 -7.62852e-016 -20   XYZ
    dof rx
    limits (-90.0 20.0)
  end
  begin
     id 11 
     name lowerback
     direction -0.0417299 0.991937 -0.119667   
     length 2.05257   
     axis 0 0 0   XYZ
    dof rx ry rz
    limits (-20.0 45.0)
           (-30.0 30.0)
           (-30.0 30.0)
  end
  begin
     id 12 
     name upperback
     direction -0.00017666 0.999999 0.00105178   
     length 2.05693   
     axis 0 0 0   XYZ
    dof rx ry rz
    limits (-20.0 45.0)
           (-30.0 30.0)
           (-30.0 30.0)
  end
  begin
     id 13 
     name thorax
     direction 0.0185169 0.998203 0.0569866   
     length 2.0932   
     axis 0 0 0   XYZ
    dof rx ry rz
    limits (-20.0 45.0)
           (-30.0 30.0)
           (-30.0 30.0)
  end
  begin
     id 14 
     name lowerneck
     direction -0.0212406 0.982645 0.184277   
     length 1.72509   
     axis 0 0 0   XYZ
    dof rx ry rz
    limits (-20.0 45.0)
           (-30.0 30.0)
           (-30.0 30.0)
  end
  begin
     id 15 
     name upperneck
     direction 0.00528579 0.965323 -0.261004   
     length 1.76294   
     axis 0 0 0   XYZ
    dof rx ry rz
    limits (-20.0 45.0)
           (-30.0 30.0)
           (-30.0 30.0)
  end
  begin
     id 16
     name head
     direction 0.00695421 0.994078 -0.108445  
     length 1.78678  
     axis 0 0 0   XYZ
    dof rx ry rz
    limits (-20.0 45.0)
           (-30.0 30.0)
           (-30.0 30.0)
  end
  begin
     id 17 
     name lclavicle
     direction 0.97277 0.211305 -0.095232  
     length 3.84823  
     axis 0 0 0   XYZ
    dof ry rz
    limits (-20.0 10.0)
           (0.0 20.0)
  end
  begin
     id 18 
     name lhumerus
     direction 1 -4.48957e-011 -1.98313e-027   
     length 4.97185   
     axis 180 -30 -90   XYZ
    dof rx ry rz
    limits (-60.0 90.0)
           (-90.0 90.0)
           (-90.0 90.0)
  end
  begin
     id 19
     name lradius
     direction 1 -4.4898e-011 7.31063e-027   
     length 3.35811   
     axis 180 -30 -90   XYZ
    dof rx
    limits (-10.0 170.0)
  end
  begin
     id 20
     name lwrist
     direction 1 -4.48938e-011 9.95048e-027   
     length 1.67905   
     axis -8.75986e-015 90 90   XYZ
    dof ry
    limits (-180.0 0.0)
 end
  begin
     id 21 
     name lhand
     direction 1 -4.4901e-011 1.9901e-026   
     length 0.622776   
     axis -1.26985e-014 90 90   XYZ
    dof rx rz
    limits (-90.0 90.0)
           (-45.0 45.0)
  end
  begin
     id 22 
     name lfingers
     direction 1 -4.48961e-011 3.98019e-026   
     length 0.502098   
     axis -2.5397e-014 90 90   XYZ
    dof rx
    limits (0.0 90.0)
  end
  begin
     id 23
     name lthumb
     direction 0.707107 -6.34933e-011 0.707107   
     length 0.720915   
     axis -90 45 2.85299e-015   XYZ
    dof rx rz
    limits (-45.0 45.0)
           (-45.0 45.0)
  end
  begin
     id 24 
     name rclavicle
     direction -0.990867 0.133739 -0.0172226   
     length 3.78845  
     axis 0 0 0   XYZ 
    dof ry rz
    limits (-10.0 20.0)
           (-20.0 0.0)
  end
  begin
     id 25 
     name rhumerus
     direction -1 -4.48972e-011 -1.99267e-027  
     length 4.96493   
     axis 180 30 90   XYZ
    dof rx ry rz
    limits (-90.0 60.0)
           (-90.0 90.0)
           (-90.0 90.0)
  end
  begin
     id 26 
     name rradius
     direction -1 -4.48969e-011 8.96093e-027   
     length 3.34929   
     axis 180 30 90   XYZ
    dof rx
    limits (-10.0 170.0)
  end
  begin
     id 27 
     name rwrist
     direction -1 -4.48953e-011 9.95048e-027   
     length 1.67464   
     axis -8.75986e-015 -90 -90   XYZ
    dof ry
    limits (-180.0 0.0)
  end
  begin
     id 28
     name rhand
     direction -1 -4.49001e-011 1.9901e-026   
     length 0.638041   
     axis -1.26985e-014 -90 -90   XYZ
    dof rx rz
    limits (-90.0 90.0)
           (-45.0 45.0)
  end
  begin
     id 29
     name rfingers
     direction -1 -4.48967e-011 3.98019e-026   
     length 0.514405   
     axis -2.5397e-014 -90 -90   XYZ
    dof rx
    limits (0.0 90.0)
  end
  begin
     id 30
     name rthumb
     direction -0.707107 -6.34904e-011 0.707107   
     length 0.738586   
     axis -90 -45 -2.85299e-015   XYZ
    dof rx rz
    limits (-45.0 45.0)
           (-45.0 45.0)
  end
:hierarchy
  begin
    root lhipjoint rhipjoint lowerback
    lhipjoint lfemur
    lfemur ltibia
    ltibia lfoot
    lfoot ltoes
    rhipjoint rfemur
    rfemur rtibia
    rtibia rfoot
    rfoot rtoes
    lowerback upperback
    upperback thorax
    thorax lowerneck lclavicle rclavicle
    lowerneck upperneck
    upperneck head
    lclavicle lhumerus
    lhumerus lradius
    lradius lwrist
    lwrist lhand lthumb
    lhand lfingers
    rclavicle rhumerus
    rhumerus rradius
    rradius rwrist
    rwrist rhand rthumb
    rhand rfingers
  end

#!OML:ASF E:\Mandelcareful walks\Project 1\Capture day 1\Session 1\Subject1.ASF
:FULLY-SPECIFIED
:DEGREES
81
root -29.5778 16.3594 0.865294 170.295 81.0263 163.476
lowerback -9.23848 1.51582 -4.87403
upperback 1.32669 2.57913 0.150071
thorax 6.36612 1.0886 3.27209
lowerneck -11.8443 12.771 10.0442
upperneck 30.5659 19.4396 -5.49811
head 13.9145 9.3831 -0.529207
rclavicle -5.66536e-015 8.34896e-015
rhumerus -29.2977 -7.04789 -83.1227
rradius 26.6642
rwrist -3.42009
rhand -9.14108 -28.0377
rfingers 7.12502
rthumb 16.8106 -57.33
lclavicle -5.66536e-015 8.34896e-015
lhumerus -24.7628 13.9557 85.8958
lradius 22.1979
lwrist 4.20881
lhand -21.9749 -10.9097
lfingers 7.12502
lthumb 4.43301 19.0239
rfemur -11.1224 1.70951 13.6341
rtibia 31.3787
rfoot -35.3427 -28.1095
rtoes 12.1406
lfemur -15.0155 -4.50079 -20.5841
ltibia 35.2973
lfoot -27.3865 16.4877
ltoes -1.9254
82
root -29.5881 16.3491 0.863482 171.123 80.8635 164.774
lowerback -8.70484 1.39569 -4.67097
upperback 1.47903 2.36537 0.219714
thorax 6.24716 0.990282 3.18481
lowerneck -12.8372 11.7291 8.69273
upperneck 31.4504 17.849 -4.38392
head 14.0627 8.64742 -0.134641
rclavicle 3.0091e-014 1.98785e-015
rhumerus -29.1987 -6.95983 -83.2211
rradius 27.0079
rwrist -3.65778
rhand -8.95792 -28.2125
rfingers 7.12502
rthumb 16.9869 -57.4898
lclavicle 3.0091e-014 1.98785e-015
lhumerus -24.7476 13.4801 86.1358
lradius 22.3669
lwrist 5.34804
lhand -21.5154 -10.5848
lfingers 7.12502
lthumb 4.87673 19.3391
rfemur -10.7073 1.0874 13.7586
rtibia 31.5089
rfoot -35.0579 -27.7076
rtoes 12.3091
lfemur -14.5418 -4.48782 -20.44
ltibia 35.2278
lfoot -26.9854 16.3544
ltoes -1.99276
83
root -29.5944 16.3538 0.865099 170.382 81.2616 163.902
lowerback -8.71145 1.41908 -4.67123
upperback 1.44436 2.39889 0.17714
thorax 6.21301 1.00929 3.14408
lowerneck -13.6129 10.5008 7.48377
upperneck 32.103 16.0711 -3.62927
head 14.1576 7.81713 0.0636813
rclavicle 1.39522e-014 -7.7526e-015
rhumerus -29.1701 -6.52814 -83.4928
rradius 27.3477
rwrist -4.02593
rhand -9.34288 -28.0401
rfingers 7.12502
rthumb 16.6164 -57.3487
lclavicle 1.39522e-014 -7.7526e-015
lhumerus -24.8224 12.8865 86.3769
lradius 22.6624
lwrist 6.54698
lhand -21.4541 -9.93378
lfingers 7.12502
lthumb 4.93592 19.9887
rfemur -11.1084 0.760402 13.6282
rtibia 31.704
rfoot -34.507 -27.2157
rtoes 11.8239
lfemur -14.6117 -4.28668 -20.4889
ltibia 35.0746
lfoot -26.9769 16.5464
ltoes -1.19584
84
root -29.6029 16.3515 0.86141 169.25 81.5484 162.759
lowerback -8.58193 1.3878 -4.83852
upperback 1.5511 2.36575 0.260952
thorax 6.24579 0.982314 3.31934
lowerneck -14.4773 9.17063 6.02672
upperneck 32.5873 14.2328 -3.00873
head 14.2303 6.91058 0.250846
rclavicle 5.90142e-014 -3.97569e-016
rhumerus -28.9087 -5.75115 -83.6309
rradius 27.6999
rwrist -4.64708
rhand -9.32369 -28.0512
rfingers 7.12502
rthumb 16.6348 -57.3583
lclavicle 5.90142e-014 -3.97569e-016
lhumerus -24.7575 12.1605 87.0044
lradius 23.0112
lwrist 7.51395
lhand -21.8378 -9.54908
lfingers 7.12502
lthumb 4.56542 20.3817
rfemur -11.3716 0.224673 13.4221
rtibia 31.8809
rfoot -33.9545 -26.7059
rtoes 10.7474
lfemur -14.532 -4.33075 -20.6366
ltibia 34.9423
lfoot -27.3449 16.8012
ltoes -0.108576
85
root -29.6149 16.3503 0.856495 167.582 82.3969 161.125
lowerback -8.25953 1.51015 -4.69453
upperback 1.64458 2.50003 0.23465
thorax 6.1553 1.05534 3.21756
lowerneck -15.1815 7.88366 4.59385
upperneck 32.9232 12.4123 -2.24816
head 14.2432 6.0353 0.490471
rclavicle -1.49089e-015 1.98785e-016
rhumerus -28.5781 -5.0514 -83.9769
rradius 28.0458
rwrist -5.14113
rhand -8.70761 -28.1985
rfingers 7.12502
rthumb 17.2279 -57.4548
lclavicle -1.49089e-015 1.98785e-016
lhumerus -24.7442 11.4589 87.3976
lradius 23.3847
lwrist 8.1376
lhand -21.9914 -9.85783
lfingers 7.12502
lthumb 4.41703 20.0761
rfemur -11.7431 -0.562349 13.2507
rtibia 32.0746
rfoot -32.9229 -25.6973
rtoes 9.85289
lfemur -14.2951 -3.99011 -20.719
ltibia 34.765
lfoot -27.8003 17.3552
ltoes -0.462652
